<svg width="67" height="66" viewBox="0 0 67 66" fill="none" xmlns="http://www.w3.org/2000/svg">
<path d="M4.375 50.2025V51.4062C4.37665 52.8561 4.95335 54.2462 5.97858 55.2714C7.00381 56.2967 8.39385 56.8734 9.84375 56.875H10.9375V64.5312C10.9375 64.8213 11.0527 65.0995 11.2579 65.3046C11.463 65.5098 11.7412 65.625 12.0312 65.625H17.5C17.7901 65.625 18.0683 65.5098 18.2734 65.3046C18.4785 65.0995 18.5937 64.8213 18.5938 64.5312V60.576L27.8308 50.3125H42.6562C44.1061 50.3109 45.4962 49.7342 46.5214 48.7089C47.5467 47.6837 48.1234 46.2936 48.125 44.8438V42.3371C48.125 37.4904 46.1996 32.8421 42.7725 29.415C39.3453 25.9878 34.6971 24.0625 29.8504 24.0625H18.2746C15.8748 24.0625 13.4984 24.5352 11.2812 25.4535C9.06406 26.3719 7.04948 27.718 5.35252 29.415C3.65556 31.1119 2.30946 33.1265 1.39107 35.3437C0.472686 37.5609 -1.07727e-06 39.9372 0 42.3371V44.8438C0.00164343 46.1039 0.437684 47.3249 1.23463 48.3011C2.03157 49.2772 3.14067 49.9487 4.375 50.2025V50.2025ZM6.5625 51.4062V50.3125H17.5V52.047L14.8595 54.6875H9.84375C8.97381 54.6865 8.13978 54.3405 7.52464 53.7254C6.9095 53.1102 6.56348 52.2762 6.5625 51.4062V51.4062ZM16.687 59.4246C16.5063 59.6254 16.4062 59.886 16.4062 60.1562V63.4375H13.125V56.875H15.3125C15.6026 56.875 15.8808 56.7598 16.0859 56.5546L19.3672 53.2734C19.5723 53.0683 19.6875 52.7901 19.6875 52.5V50.3125H24.8879L16.687 59.4246ZM7.2479 30.625H10.4845L13.4453 33.5859L14.9922 32.0391L11.7109 28.7579C11.5058 28.5527 11.2276 28.4375 10.9375 28.4375H10.1791C12.6365 27.0048 15.4301 26.25 18.2746 26.25H18.5938V29.5312C18.5937 29.8213 18.709 30.0995 18.9141 30.3046L23.2891 34.6796L24.8359 33.1329L20.7812 29.0782V26.25H29.8504C32.838 26.2494 35.7667 27.0814 38.3078 28.6526C38.6139 28.8417 38.9126 29.0407 39.2038 29.2494L36.0938 32.3595L32.4922 28.7579C32.2871 28.5527 32.0089 28.4375 31.7188 28.4375H26.25V30.625H31.2657L33.4532 32.8125H28.4375V35H36.0938C36.3838 35 36.6621 34.8848 36.8672 34.6796L40.9004 30.6464C42.4914 32.1497 43.7588 33.9619 44.6249 35.9722C45.491 37.9824 45.9377 40.1482 45.9375 42.3371V44.8438C45.9365 45.7137 45.5905 46.5477 44.9753 47.1628C44.3602 47.778 43.5262 48.124 42.6562 48.125H40.9218L39.034 46.2371L42.0517 44.7283C42.2334 44.6374 42.3862 44.4978 42.4929 44.325C42.5997 44.1522 42.6563 43.9531 42.6562 43.75V38.2812H40.4688V43.074L37.4035 44.6067L35.7734 42.9766C35.5683 42.7715 35.2901 42.6563 35 42.6562H30.625V44.8438H34.547L37.8282 48.125H27.3438V42.6562C27.3438 42.3662 27.2285 42.088 27.0234 41.8829L23.7422 38.6016L22.1953 40.1484L25.1562 43.1093V48.125H9.58807L11.5567 44.8438H18.5938V42.6562H15.3125V39.9007L20.3707 35.8541L19.0043 34.1459L13.5356 38.5209C13.4074 38.6234 13.304 38.7533 13.233 38.9012C13.1619 39.049 13.125 39.211 13.125 39.375V42.6562H10.9375C10.7486 42.6563 10.563 42.7052 10.3986 42.7982C10.2342 42.8913 10.0968 43.0253 9.99956 43.1872L7.03691 48.125H5.46875C4.59881 48.124 3.76479 47.778 3.14965 47.1628C2.53452 46.5477 2.1885 45.7137 2.1875 44.8438V42.3371C2.1875 42.0788 2.19538 41.8205 2.20799 41.5625H6.5625C6.73231 41.5625 6.89978 41.523 7.05167 41.447C7.20355 41.3711 7.33566 41.2608 7.43755 41.125L10.7188 36.75L8.9687 35.4375L6.01562 39.375H2.46628C3.08974 36.0243 4.76462 32.9594 7.2479 30.625V30.625Z" fill="white"/>
<path d="M65.625 17.5H62.3268C62.2587 17.5 62.1925 17.4775 62.1384 17.436C62.0844 17.3945 62.0455 17.3363 62.0279 17.2705C62.0103 17.2047 62.0148 17.1349 62.0409 17.072C62.067 17.009 62.1131 16.9564 62.1721 16.9223L65.0283 15.2732C65.1527 15.2014 65.2617 15.1058 65.3492 14.9919C65.4366 14.8779 65.5008 14.7479 65.5379 14.6091C65.5751 14.4704 65.5846 14.3257 65.5658 14.1833C65.5471 14.0409 65.5004 13.9035 65.4286 13.7792L62.1474 8.09585C62.0755 7.97145 61.9799 7.86242 61.866 7.77498C61.7521 7.68754 61.622 7.6234 61.4833 7.58622C61.3445 7.54905 61.1998 7.53957 61.0574 7.55832C60.915 7.57707 60.7777 7.62368 60.6533 7.6955L57.7971 9.34461C57.738 9.37871 57.6694 9.39237 57.6018 9.38348C57.5343 9.37459 57.4715 9.34365 57.4233 9.29545C57.3751 9.24725 57.3442 9.18449 57.3353 9.11691C57.3264 9.04933 57.3401 8.98071 57.3742 8.9217L59.0233 6.06543C59.1683 5.8142 59.2076 5.51565 59.1325 5.23545C59.0574 4.95526 58.8741 4.71637 58.6228 4.57133L52.9397 1.29008C52.8153 1.21825 52.678 1.17163 52.5356 1.15288C52.3932 1.13412 52.2485 1.1436 52.1097 1.18078C51.971 1.21796 51.8409 1.2821 51.727 1.36954C51.613 1.45699 51.5174 1.56602 51.4456 1.69042L49.7963 4.54683C49.7623 4.60584 49.7097 4.65195 49.6467 4.67801C49.5837 4.70408 49.5139 4.70864 49.4481 4.69099C49.3823 4.67334 49.3242 4.63447 49.2827 4.5804C49.2412 4.52633 49.2187 4.46009 49.2188 4.39195V1.09375C49.2187 0.80367 49.1035 0.525472 48.8984 0.320355C48.6933 0.115238 48.4151 2.90075e-06 48.125 0H41.5625C41.2724 2.90075e-06 40.9942 0.115238 40.7891 0.320355C40.584 0.525472 40.4688 0.80367 40.4688 1.09375V4.39195C40.4687 4.46011 40.4463 4.52636 40.4048 4.58042C40.3633 4.63449 40.3051 4.67336 40.2393 4.69099C40.1734 4.70862 40.1036 4.70404 40.0407 4.67795C39.9777 4.65186 39.9251 4.60573 39.891 4.5467L38.2419 1.69042C38.1701 1.56603 38.0745 1.457 37.9605 1.36955C37.8466 1.28211 37.7165 1.21797 37.5778 1.18079C37.439 1.14361 37.2943 1.13413 37.1519 1.15288C37.0095 1.17163 36.8722 1.21825 36.7478 1.29008L31.0647 4.57133C30.8134 4.71637 30.6301 4.95526 30.555 5.23545C30.48 5.51564 30.5192 5.81419 30.6643 6.06542L32.3134 8.92176C32.3475 8.98079 32.3611 9.0494 32.3522 9.11696C32.3433 9.18452 32.3123 9.24725 32.2641 9.29543C32.2159 9.3436 32.1532 9.37453 32.0856 9.38343C32.0181 9.39232 31.9495 9.37867 31.8904 9.3446L29.0342 7.6955C28.9098 7.62368 28.7725 7.57706 28.6301 7.55831C28.4877 7.53956 28.343 7.54904 28.2042 7.58622C28.0655 7.6234 27.9355 7.68754 27.8215 7.77498C27.7076 7.86242 27.612 7.97145 27.5401 8.09584L24.2589 13.7791C24.1871 13.9035 24.1404 14.0408 24.1217 14.1833C24.1029 14.3257 24.1124 14.4704 24.1496 14.6091C24.1867 14.7478 24.2509 14.8779 24.3383 14.9919C24.4258 15.1058 24.5348 15.2014 24.6592 15.2732L27.5154 16.9223C27.5745 16.9564 27.6206 17.009 27.6467 17.072C27.6727 17.1349 27.6773 17.2047 27.6597 17.2705C27.642 17.3364 27.6032 17.3945 27.5491 17.436C27.4951 17.4775 27.4288 17.5 27.3607 17.5H24.0625C23.7724 17.5 23.4942 17.6152 23.2891 17.8204C23.084 18.0255 22.9688 18.3037 22.9688 18.5938V21.875H25.1562V19.6875H27.3607C27.9104 19.6875 28.4447 19.5061 28.8808 19.1715C29.3169 18.8369 29.6304 18.3677 29.7727 17.8367C29.9149 17.3058 29.878 16.7427 29.6677 16.2348C29.4573 15.727 29.0852 15.3028 28.6092 15.0279L26.7001 13.9257L28.8876 10.1368L30.7967 11.239C31.2728 11.5139 31.8262 11.624 32.3712 11.5522C32.9162 11.4805 33.4223 11.2309 33.811 10.8422C34.1997 10.4535 34.4492 9.94743 34.521 9.40244C34.5928 8.85745 34.4827 8.30401 34.2079 7.82795L33.1056 5.91889L36.8944 3.73139L37.9966 5.64031C38.2714 6.11641 38.6956 6.48851 39.2035 6.69891C39.7113 6.90932 40.2744 6.94625 40.8054 6.804C41.3364 6.66174 41.8056 6.34825 42.1402 5.91213C42.4749 5.47602 42.6563 4.94166 42.6562 4.39195V2.1875H47.0312V4.39195C47.0312 4.94164 47.2126 5.47598 47.5472 5.91208C47.8819 6.34818 48.351 6.66168 48.882 6.80395C49.413 6.94622 49.976 6.9093 50.4839 6.69894C50.9917 6.48857 51.4159 6.1165 51.6908 5.64045L52.7931 3.73139L56.5819 5.91889L55.4798 7.82788C55.2049 8.30392 55.0948 8.85737 55.1665 9.40238C55.2382 9.94739 55.4878 10.4535 55.8765 10.8422C56.2652 11.2309 56.7713 11.4805 57.3163 11.5523C57.8613 11.624 58.4147 11.5139 58.8908 11.239L60.7999 10.1368L62.9874 13.9257L61.0783 15.0279C60.6023 15.3028 60.2302 15.727 60.0199 16.2348C59.8095 16.7427 59.7726 17.3057 59.9149 17.8367C60.0571 18.3676 60.3706 18.8368 60.8067 19.1715C61.2428 19.5061 61.7771 19.6875 62.3268 19.6875H64.5312V24.0625H61.25C61.0092 24.0625 60.7752 24.1419 60.5841 24.2885C60.3931 24.4351 60.2558 24.6406 60.1935 24.8732L59.9149 25.9131C59.7731 26.4441 59.8103 27.007 60.0206 27.5148C60.2309 28.0225 60.6026 28.4468 61.0783 28.7221L62.9874 29.8243L60.7999 33.6132L58.8908 32.511C58.4147 32.2361 57.8613 32.126 57.3163 32.1978C56.7713 32.2695 56.2652 32.5191 55.8766 32.9078C55.4879 33.2965 55.2383 33.8026 55.1665 34.3476C55.0948 34.8926 55.2048 35.446 55.4796 35.9221L56.5819 37.8311L52.7931 40.0186L52.3534 39.2572L50.4591 40.3509L51.4456 42.0596C51.5174 42.184 51.613 42.2931 51.7269 42.3806C51.8409 42.4681 51.9709 42.5322 52.1097 42.5694C52.2484 42.6066 52.3932 42.616 52.5356 42.5973C52.678 42.5785 52.8153 42.5318 52.9397 42.4599L58.6228 39.1787C58.8741 39.0336 59.0574 38.7947 59.1325 38.5145C59.2076 38.2343 59.1683 37.9358 59.0233 37.6846L57.3741 34.8282C57.34 34.7692 57.3264 34.7006 57.3353 34.633C57.3442 34.5655 57.3752 34.5027 57.4234 34.4546C57.4716 34.4064 57.5343 34.3755 57.6019 34.3666C57.6694 34.3577 57.738 34.3713 57.7971 34.4054L60.6533 36.0545C60.7777 36.1263 60.915 36.1729 61.0574 36.1917C61.1998 36.2104 61.3445 36.201 61.4833 36.1638C61.622 36.1266 61.7521 36.0625 61.866 35.975C61.9799 35.8876 62.0756 35.7785 62.1474 35.6542L65.4286 29.9708C65.5004 29.8465 65.5471 29.7091 65.5658 29.5667C65.5846 29.4243 65.5751 29.2796 65.5379 29.1409C65.5008 29.0021 65.4366 28.8721 65.3492 28.7581C65.2618 28.6442 65.1527 28.5486 65.0283 28.4768L62.1721 26.8277C62.1131 26.7935 62.067 26.7409 62.0409 26.678C62.0149 26.615 62.0103 26.5453 62.0279 26.4794L62.0893 26.25H65.625C65.9151 26.25 66.1933 26.1348 66.3984 25.9296C66.6035 25.7245 66.7187 25.4463 66.7188 25.1562V18.5938C66.7187 18.3037 66.6035 18.0255 66.3984 17.8204C66.1933 17.6152 65.9151 17.5 65.625 17.5V17.5Z" fill="white"/>
<path d="M44.8438 14.2188C43.7307 14.2195 42.6311 14.4628 41.6216 14.9318C40.6121 15.4007 39.7168 16.0839 38.9982 16.9339C38.2796 17.784 37.7548 18.7804 37.4604 19.8538C37.166 20.9273 37.109 22.052 37.2934 23.1497L39.4507 22.7878C39.4003 22.4861 39.375 22.1808 39.375 21.875C39.3752 20.8325 39.6734 19.8117 40.2345 18.933C40.7955 18.0543 41.5961 17.3543 42.5418 16.9154C43.4874 16.4766 44.5389 16.3172 45.5721 16.4561C46.6054 16.5949 47.5774 17.0262 48.3737 17.6992C49.17 18.3721 49.7573 19.2586 50.0665 20.2543C50.3757 21.2499 50.3938 22.3132 50.1188 23.3188C49.8437 24.3244 49.287 25.2305 48.5141 25.9302C47.7413 26.6299 46.7845 27.0941 45.7566 27.2681L46.1184 29.4254C48.0115 29.1057 49.7154 28.0864 50.8924 26.5696C52.0694 25.0528 52.6336 23.1492 52.4732 21.236C52.3129 19.3228 51.4396 17.5397 50.0265 16.24C48.6134 14.9403 46.7637 14.2189 44.8438 14.2188V14.2188Z" fill="white"/>
</svg>
