<svg width="71" height="71" viewBox="0 0 71 71" fill="none" xmlns="http://www.w3.org/2000/svg">
<path d="M0.873892 36.1306L1.20989 36.2181C1.9171 53.9072 16.0952 68.0854 33.7844 68.7926L33.8719 69.1286C34.0053 69.6431 34.4697 70.0024 35.0012 70.0024C35.5328 70.0024 35.9972 69.6431 36.1306 69.1286L36.2181 68.7926C53.9073 68.0854 68.0854 53.9072 68.7926 36.2181L69.1286 36.1306C69.6431 35.9972 70.0025 35.0012 70.0025 35.0012L69.1286 33.8719L68.7926 33.7844C68.0854 16.0952 53.9073 1.9171 36.2181 1.20989L36.1306 0.873892C35.9972 0.35933 35.5328 0 35.0012 0C34.4697 0 34.0053 0.35933 33.8719 0.873892L33.7844 1.20989C16.0952 1.9171 1.9171 16.0952 1.20989 33.7844L0.873892 33.8719C0.35933 34.0053 0 34.4697 0 35.0012C0 35.5328 0.35933 35.9972 0.873892 36.1306ZM36.8329 66.4371L37.4594 64.0361C40.4399 63.7951 43.3647 63.0918 46.1289 61.9512C46.1406 61.9512 46.1522 61.9512 46.1627 61.9442C46.1732 61.9372 46.1826 61.9291 46.1954 61.9232C49.7215 60.4644 52.9246 58.3234 55.6209 55.6232C58.3172 52.9308 60.4554 49.7325 61.9127 46.2117C61.9209 46.1954 61.9337 46.1826 61.9407 46.1651C61.9477 46.1476 61.9407 46.1429 61.9477 46.1312C63.0867 43.3668 63.7889 40.442 64.0291 37.4617L66.4301 36.8352C65.4346 52.7515 52.7491 65.4391 36.8329 66.4371ZM44.0791 13.0842C44.365 13.2028 44.6863 13.2029 44.9722 13.0845C45.2582 12.9662 45.4855 12.739 45.6039 12.4531L46.3249 10.7136C48.8061 11.8653 51.0948 13.393 53.1102 15.2426L52.8431 15.5097C52.5398 15.8026 52.4182 16.2364 52.5249 16.6443C52.6317 17.0522 52.9502 17.3708 53.3581 17.4775C53.766 17.5843 54.1998 17.4627 54.4927 17.1594L54.7599 16.8922C56.6094 18.9078 58.137 21.1964 59.2889 23.6776L57.5494 24.3986C56.954 24.645 56.6712 25.3274 56.9177 25.9228C57.1641 26.5182 57.8465 26.801 58.4419 26.5546L60.1919 25.8301C60.9121 27.7947 61.3969 29.8378 61.6362 31.9166L47.0354 28.1086L51.1946 20.3876C51.4379 19.9341 51.3554 19.3748 50.9915 19.0109C50.6277 18.647 50.0683 18.5646 49.6149 18.8079L41.8939 22.9671L38.0859 8.36856C40.1646 8.60811 42.2077 9.09293 44.1724 9.81289L43.4479 11.5629C43.2033 12.1573 43.4855 12.8376 44.0791 13.0842ZM44.7114 27.5019L42.9614 27.0446L42.5041 25.2946L47.2991 22.7104L44.7114 27.5019ZM42.3512 29.2986L45.0031 29.9904L45.0346 29.9986L59.7404 33.8346H37.8176L42.3512 29.2986ZM59.7404 36.1679L42.3512 40.7039L37.8176 36.1679H59.7404ZM44.7114 42.5006L47.2956 47.2956L42.5006 44.7114L42.9579 42.9614L44.7114 42.5006ZM49.6114 51.1946C50.0648 51.4379 50.6242 51.3554 50.988 50.9915C51.3519 50.6276 51.4344 50.0683 51.1911 49.6149L47.0319 41.8939L61.6304 38.0859C61.3909 40.1646 60.906 42.2077 60.1861 44.1724L58.4361 43.4479C57.8407 43.2014 57.1583 43.4843 56.9118 44.0796C56.6654 44.675 56.9482 45.3574 57.5436 45.6039L59.2831 46.3249C58.1313 48.8061 56.6037 51.0948 54.7541 53.1102L54.4869 52.8431C54.0291 52.4009 53.3015 52.4072 52.8515 52.8573C52.4014 53.3073 52.3951 54.035 52.8372 54.4927L53.1044 54.7599C51.0889 56.6094 48.8002 58.137 46.3191 59.2889L45.5981 57.5494C45.3516 56.954 44.6692 56.6712 44.0738 56.9176C43.4785 57.1641 43.1956 57.8465 43.4421 58.4419L44.1666 60.1919C42.2019 60.9121 40.1588 61.3969 38.0801 61.6362L41.8881 47.0377L49.6114 51.1946ZM66.4371 33.1696L64.0361 32.5431C63.7951 29.5622 63.0917 26.637 61.9512 23.8724C61.9512 23.8619 61.9512 23.8502 61.9442 23.8397C61.9372 23.8292 61.9291 23.8199 61.9232 23.8082C60.4647 20.2817 58.3237 17.0781 55.6232 14.3816C52.927 11.6807 49.7234 9.53964 46.1966 8.08156C46.1849 8.08156 46.1779 8.06523 46.1651 8.06056C46.1522 8.05589 46.1429 8.06056 46.1312 8.05356C43.3668 6.91456 40.442 6.2124 37.4617 5.97223L36.8329 3.56539C52.7526 4.56012 65.4423 17.2498 66.4371 33.1696ZM36.1679 10.2679L40.7039 27.6512L36.1679 32.1849V10.2679ZM36.1679 37.8234L40.7039 42.3512L36.1679 59.7404V37.8234ZM33.8346 59.7404L29.2986 42.3512L33.8346 37.8176V59.7404ZM25.9234 56.9182C25.6375 56.7996 25.3162 56.7995 25.0302 56.9179C24.7442 57.0363 24.517 57.2634 24.3986 57.5494L23.6776 59.2889C21.1964 58.1371 18.9077 56.6095 16.8922 54.7599L17.1594 54.4927C17.6015 54.035 17.5952 53.3073 17.1452 52.8573C16.6952 52.4072 15.9675 52.4009 15.5097 52.8431L15.2426 53.1102C13.3931 51.0947 11.8655 48.806 10.7136 46.3249L12.4531 45.6039C13.0484 45.3574 13.3313 44.675 13.0848 44.0796C12.8384 43.4843 12.1559 43.2014 11.5606 43.4479L9.81056 44.1724C9.09035 42.2077 8.60553 40.1647 8.36623 38.0859L22.9647 41.8939L18.8079 49.6149C18.5646 50.0683 18.647 50.6276 19.0109 50.9915C19.3748 51.3554 19.9341 51.4379 20.3876 51.1946L28.1086 47.0354L31.9166 61.6339C29.8378 61.3943 27.7948 60.9095 25.8301 60.1896L26.5546 58.4396C26.7992 57.8452 26.5169 57.1649 25.9234 56.9182ZM12.4531 24.3986L10.7136 23.6776C11.8654 21.1964 13.393 18.9077 15.2426 16.8922L15.5097 17.1594C15.9675 17.6015 16.6952 17.5952 17.1452 17.1452C17.5952 16.6952 17.6015 15.9675 17.1594 15.5097L16.8922 15.2426C18.9078 13.3931 21.1964 11.8655 23.6776 10.7136L24.3986 12.4531C24.645 13.0484 25.3275 13.3313 25.9228 13.0848C26.5182 12.8384 26.801 12.1559 26.5546 11.5606L25.8301 9.81056C27.7947 9.09035 29.8378 8.60553 31.9166 8.36623L28.1086 22.9671L20.3876 18.8079C19.9341 18.5646 19.3748 18.647 19.0109 19.0109C18.647 19.3748 18.5646 19.9341 18.8079 20.3876L22.9671 28.1086L8.36856 31.9166C8.60811 29.8378 9.09293 27.7948 9.81289 25.8301L11.5629 26.5546C11.948 26.714 12.389 26.6558 12.7196 26.402C13.0502 26.1482 13.2203 25.7373 13.1658 25.324C13.1113 24.9108 12.8405 24.558 12.4554 24.3986H12.4531ZM10.2679 36.1679H32.1849L27.6512 40.7039L10.2679 36.1679ZM27.5077 44.7114L22.7127 47.2956L25.2969 42.5006L27.0469 42.9579L27.5077 44.7114ZM10.2679 33.8346L24.9679 29.9986L24.9994 29.9904L27.6512 29.2986L32.1849 33.8346H10.2679ZM22.7127 22.7069L27.5077 25.2911L27.0504 27.0411L25.3004 27.4984L22.7127 22.7069ZM33.8346 10.2679V32.1849L29.2986 27.6512L33.8346 10.2679ZM33.1696 3.57122L32.5431 5.97223C29.5625 6.21138 26.6373 6.91277 23.8724 8.05123C23.8619 8.05123 23.8502 8.05123 23.8397 8.05823C23.8292 8.06523 23.8199 8.07339 23.8071 8.07923C20.281 9.53804 17.0779 11.679 14.3816 14.3792C11.6807 17.0754 9.53964 20.2791 8.08156 23.8059C8.08156 23.8176 8.06523 23.8246 8.06056 23.8374C8.05589 23.8502 8.06056 23.8596 8.05356 23.8712C6.91456 26.6357 6.2124 29.5605 5.97223 32.5407L3.57123 33.1672C4.56677 17.2505 17.253 4.56282 33.1696 3.56539V3.57122ZM5.96639 37.4594C6.20741 40.4403 6.91077 43.3655 8.05123 46.1301C8.05123 46.1406 8.05123 46.1522 8.05823 46.1627C8.067 46.1792 8.07674 46.1952 8.08739 46.2106C9.54461 49.7307 11.6824 52.9286 14.3781 55.6209C17.0743 58.3218 20.2779 60.4628 23.8047 61.9209C23.8164 61.9267 23.8234 61.9372 23.8362 61.9419C23.8491 61.9466 23.8596 61.9419 23.8712 61.9489C26.6353 63.0879 29.5597 63.7901 32.5396 64.0302L33.1661 66.4312C17.2498 65.4351 4.56276 52.7491 3.56539 36.8329L5.96639 37.4594Z" fill="white"/>
</svg>
