<svg width="70" height="70" viewBox="0 0 70 70" fill="none" xmlns="http://www.w3.org/2000/svg">
<path d="M68.3708 30.6342C69.8191 29.2225 70.3306 27.1505 69.7056 25.2268C69.0806 23.3033 67.4488 21.9276 65.4473 21.6368L49.3438 19.2968C48.2932 19.1441 47.3855 18.4847 46.9157 17.5327L44.2971 12.227C44.0466 11.7193 43.4321 11.5109 42.9242 11.7615C42.4166 12.012 42.2082 12.6267 42.4587 13.1344L45.0772 18.4401C45.8458 19.9972 47.3306 21.0759 49.049 21.3256L65.1525 23.6656C66.3948 23.8461 67.3679 24.6666 67.7558 25.8604C68.1437 27.0542 67.8386 28.2901 66.9398 29.1663L55.2872 40.5247C54.0438 41.7368 53.4766 43.4823 53.7701 45.1937L56.5209 61.2322C56.7331 62.4694 56.2534 63.6485 55.238 64.3862C54.2224 65.124 52.9528 65.216 51.8418 64.6317L49.248 63.2681V61.6026C49.248 59.9308 47.8878 58.5705 46.2159 58.5705H45.6245V53.9837C45.6248 53.1349 46.1851 51.8066 46.8002 51.1969C49.5353 48.4854 50.9861 46.1815 50.8211 41.7793C50.6927 38.3529 50.0758 35.2688 49.3718 32.5721V29.8416C49.3718 27.75 47.6701 26.0484 45.5786 26.0484C44.9462 26.0484 44.3499 26.2047 43.825 26.4796C43.6166 24.3859 41.8452 22.7454 39.6975 22.7454C38.7619 22.7454 37.8979 23.057 37.2032 23.5815C36.5228 22.2178 35.1141 21.2784 33.4893 21.2784C31.836 21.2784 30.4058 22.251 29.7398 23.6538C29.03 23.0861 28.131 22.7454 27.1535 22.7454C24.8661 22.7454 23.0051 24.6062 23.0051 26.8937V33.3035C22.813 33.4228 22.6285 33.5558 22.4545 33.7035C20.952 34.9802 19.8735 37.3583 19.5071 39.0277C19.2549 40.1764 19.1292 41.2986 19.1332 42.3631C19.1494 46.6878 21.3827 49.7185 23.5651 52.1129C23.7329 52.297 23.8253 52.5336 23.8253 52.779V58.5703H23.7511C22.0793 58.5703 20.719 59.9305 20.719 61.6024V63.2681L18.1256 64.6316C17.0146 65.2158 15.745 65.124 14.7294 64.3861C13.7139 63.6483 13.2343 62.4692 13.4465 61.2321L16.1973 45.1936C16.4908 43.4821 15.9236 41.7367 14.6802 40.5245L3.02771 29.1663C2.12881 28.2901 1.82375 27.0542 2.21163 25.8604C2.59951 24.6667 3.57264 23.8463 4.81487 23.6656L20.9184 21.3256C22.6368 21.0759 24.1216 19.9971 24.8902 18.4401L32.0918 3.8478C32.6475 2.72201 33.7286 2.05012 34.9838 2.05012C36.2391 2.05012 37.3201 2.72201 37.8755 3.84725L40.3629 8.89286C40.6133 9.4006 41.2278 9.60972 41.7356 9.35892C42.2433 9.10867 42.452 8.49404 42.2018 7.9863L39.7141 2.94028C38.8189 1.12661 37.0065 0 34.9838 0C32.9612 0 31.1488 1.12661 30.2537 2.94041L23.0519 17.5326C22.582 18.4845 21.6743 19.144 20.6237 19.2967L4.52034 21.6368C2.51874 21.9276 0.88712 23.3031 0.262108 25.2268C-0.362905 27.1505 0.148531 29.2225 1.59701 30.6343L13.2496 41.9927C14.0098 42.7336 14.3565 43.8007 14.1771 44.8471L11.4261 60.8856C11.0841 62.879 11.8882 64.8558 13.5246 66.0448C15.1609 67.2336 17.2896 67.3875 19.0799 66.4463L20.7193 65.5845V66.9681C20.7193 68.64 22.0794 70.0003 23.7514 70.0003H28.0819C28.648 70.0003 29.107 69.5415 29.107 68.9752C29.107 68.409 28.648 67.9502 28.0819 67.9502H23.7514C23.21 67.9502 22.7694 67.5097 22.7694 66.9681V61.6026C22.7694 61.0611 23.2099 60.6206 23.7514 60.6206H46.2162C46.7575 60.6206 47.1982 61.0611 47.1982 61.6026V66.9681C47.1982 67.5097 46.7577 67.9502 46.2162 67.9502H32.8199C32.2538 67.9502 31.7948 68.409 31.7948 68.9752C31.7948 69.5415 32.2538 70.0003 32.8199 70.0003H46.2162C47.888 70.0003 49.2483 68.6401 49.2483 66.9681V65.5843L50.8881 66.4465C51.6669 66.8558 52.5093 67.0581 53.3478 67.0581C54.4368 67.0579 55.5189 66.7167 56.4434 66.0451C58.0798 64.8561 58.8838 62.8793 58.5419 60.8859L55.7907 44.8471C55.6113 43.8007 55.958 42.7336 56.7182 41.9927L68.3708 30.6342ZM43.8458 29.6549C43.9393 28.7813 44.6805 28.0985 45.5786 28.0985C46.5398 28.0985 47.3217 28.8805 47.3217 29.8416V36.2422C47.3217 37.2033 46.5397 37.9854 45.5786 37.9854C44.6175 37.9854 43.8354 37.2033 43.8354 36.2422L43.8458 29.6549ZM37.6376 26.5001C37.8226 25.5308 38.6753 24.7955 39.6975 24.7955C40.8544 24.7955 41.7957 25.7368 41.7957 26.8937L41.7853 34.3194C41.6822 35.3808 40.7855 36.2134 39.6975 36.2134C39.3189 36.2134 38.9652 36.1101 38.6586 35.9333C38.7791 35.4237 38.8089 34.8749 38.7424 34.2868C38.6648 33.5998 38.2273 33.0359 37.6329 32.7721C37.6341 32.7305 37.6376 26.5001 37.6376 26.5001V26.5001ZM31.3911 25.4266C31.3911 24.2697 32.3324 23.3284 33.4893 23.3284C34.6463 23.3284 35.5875 24.2697 35.5875 25.4266L35.5493 32.6101H31.3912V25.4266H31.3911ZM25.0553 26.8936C25.0553 25.7366 25.9965 24.7953 27.1535 24.7953C28.3104 24.7953 29.2517 25.7366 29.2517 26.8936V32.61H25.4315C25.3055 32.61 25.1802 32.6157 25.0554 32.626V26.8936H25.0553ZM43.5745 53.9835V58.5705H25.8756C25.8756 58.5705 25.8756 52.889 25.8756 52.7792C25.8756 52.0216 25.5932 51.2945 25.0804 50.7319C23.161 48.6263 21.1969 45.9844 21.1834 42.3555C21.18 41.4413 21.2897 40.4694 21.5096 39.4672C21.8065 38.1144 22.7039 36.1821 23.7817 35.2662C24.242 34.8756 24.828 34.6604 25.4317 34.6604H36.7189C36.7875 35.5765 36.4806 36.2153 35.7101 36.7766C34.0223 38.0063 31.2987 37.6975 29.8354 37.5319C29.602 37.5054 29.4003 37.4826 29.2296 37.469C28.5103 37.4108 27.6991 37.5549 27.358 38.2695C27.1283 38.7506 27.1878 39.3118 27.5135 39.7347C27.8966 40.2322 28.4452 40.5096 28.8862 40.9367C29.2128 41.253 29.4838 41.6331 29.7163 42.0219C30.3555 43.0909 30.7102 44.3571 30.5606 45.6051C30.4933 46.1671 30.8944 46.6775 31.4565 46.7448C32.018 46.8122 32.529 46.4111 32.5961 45.8488C32.911 43.2189 31.6408 40.8829 30.5056 39.6626C32.2733 39.8202 34.9588 39.8603 36.9174 38.4333C37.2107 38.2196 37.4673 37.9889 37.6916 37.7433C38.2866 38.0737 38.9702 38.2632 39.6976 38.2632C40.5567 38.2632 41.3557 38.0007 42.0186 37.5516C42.553 38.9998 43.9471 40.0354 45.5787 40.0354C46.7523 40.0354 47.8031 39.4995 48.4994 38.6597C48.6338 39.69 48.7314 40.7548 48.7728 41.8563C48.8974 45.1802 48.0994 47.0226 45.3572 49.741C44.3579 50.7315 43.5749 52.5946 43.5745 53.9835V53.9835Z" fill="white"/>
</svg>
