<svg width="70" height="71" viewBox="0 0 70 71" fill="none" xmlns="http://www.w3.org/2000/svg">
<path d="M6.56697 57.8463C6.44998 58.9069 6.58344 59.9803 6.95664 60.98C7.47409 62.8383 9.15319 64.1342 11.082 64.1638C11.4026 64.163 11.7224 64.1298 12.0363 64.0646C15.3535 63.2617 18.6249 62.2803 21.8363 61.1246C24.4566 62.6681 26.1145 67.3558 26.5461 69.114C26.6737 69.6367 27.1421 70.0044 27.6801 70.0041L56.883 69.9236C57.2523 69.9227 57.5993 69.7471 57.8187 69.45C58.0381 69.1529 58.1038 68.7695 57.996 68.4163C57.7101 67.6195 57.3125 66.8673 56.8153 66.1821C56.5404 65.7873 56.2921 65.3745 56.0721 64.9466C55.5459 63.8687 55.1051 62.7511 54.7538 61.6041C54.0876 59.3508 53.6283 57.0413 53.3818 54.7045C53.1608 52.8695 53.2037 51.0124 53.509 49.1896C53.5842 48.7752 53.4302 48.3524 53.106 48.0835C52.7819 47.8145 52.3379 47.7412 51.9445 47.8915C51.5511 48.0419 51.2692 48.3927 51.2071 48.8093C50.8657 50.8504 50.8182 52.9299 51.066 54.9845C51.328 57.4594 51.8158 59.9052 52.5231 62.2913C52.9076 63.549 53.3901 64.7747 53.9663 65.957C54.2303 66.4779 54.5292 66.9803 54.8611 67.4608L54.9475 67.5903L28.561 67.6708C27.7866 64.903 26.3818 62.3521 24.4566 60.2181C24.7611 60.1131 25.0481 60.0116 25.3153 59.9183C26.188 59.6115 26.8471 59.3793 27.182 59.2755C32.173 57.7051 34.6685 55.4325 34.5996 52.5193C34.5983 52.2081 34.4704 51.9108 34.2452 51.696C34.02 51.4812 33.7171 51.3673 33.4061 51.3806C32.7622 51.3959 32.2525 51.9302 32.2675 52.5741C32.2955 53.7758 31.3143 55.5293 26.4796 57.0495C26.1355 57.158 25.4518 57.3995 24.5465 57.7168C23.7135 58.0085 22.688 58.369 21.5645 58.7528C18.286 59.9414 14.9456 60.9516 11.558 61.7791C10.4681 61.9886 9.4083 61.2967 9.16164 60.2146C8.90926 59.5594 8.8126 58.8545 8.87931 58.1555C8.91197 57.914 8.96681 57.6725 9.01931 57.431C9.25864 56.6213 9.29629 55.7654 9.12897 54.9378C8.79441 53.8679 8.01082 52.9966 6.98231 52.5508L6.73381 52.4073C6.8587 52.1518 7.00837 51.9091 7.18064 51.6828C7.37423 51.4349 7.45949 51.1193 7.4171 50.8076C7.37471 50.4959 7.20825 50.2145 6.95547 50.0273C6.67664 49.8196 6.01164 49.3203 5.53331 48.9376C5.59164 48.828 5.66047 48.7043 5.72114 48.5993C5.89964 48.2831 6.10381 47.918 6.30447 47.5003C6.67781 46.6849 6.78712 45.7733 6.61714 44.8928C6.34647 43.4625 4.98381 42.7648 3.98747 42.2561C3.65138 42.0963 3.32907 41.909 3.02381 41.6961C2.77916 41.5275 2.54786 41.3403 2.33197 41.1361C2.33197 40.9611 2.51631 40.5365 3.41231 39.4375C5.49268 36.7498 7.27564 33.8445 8.72997 30.7726C9.00998 30.2909 9.16667 29.7475 9.18614 29.1906C9.06773 28.0173 8.44581 26.9531 7.48164 26.274C7.01497 25.8423 6.56581 25.434 6.51681 25.0746C6.52133 24.7924 6.58492 24.5142 6.70347 24.258C6.89364 23.7505 7.11647 23.2523 7.33931 22.7553C7.81393 21.7742 8.19215 20.7493 8.46864 19.6951L8.56314 19.2845C8.81162 18.0883 9.13583 16.9092 9.53381 15.7541C10.4469 13.2164 11.8677 10.8913 13.7093 8.92096C15.9645 6.53513 19.3746 4.9088 24.1358 3.94747C27.7321 3.15985 31.381 2.63541 35.0535 2.3783C39.7211 2.09079 44.3713 3.17133 48.434 5.48746C48.7989 5.6892 49.2437 5.68093 49.6009 5.46577C49.958 5.25061 50.1733 4.86125 50.1655 4.44436C50.1578 4.02746 49.9282 3.64637 49.5633 3.44463C45.1133 0.931453 40.0344 -0.249066 34.9321 0.0437987C31.1455 0.306192 27.3831 0.845072 23.675 1.65613C18.425 2.71547 14.61 4.5658 12.0083 7.3133C9.95061 9.51279 8.36275 12.1085 7.34164 14.9421C6.91135 16.1891 6.56064 17.4622 6.29164 18.7536L6.19714 19.162C5.95191 20.0701 5.62104 20.953 5.20897 21.7986C4.96747 22.3388 4.72714 22.879 4.52064 23.432C4.24957 24.048 4.14111 24.7232 4.20564 25.3931C4.4426 26.4349 5.04583 27.3569 5.90547 27.9913C6.47597 28.5151 6.85047 28.8838 6.85397 29.2175C6.80949 29.393 6.74077 29.5614 6.64981 29.718C5.25566 32.6649 3.54624 35.452 1.55147 38.0305C0.719641 39.0513 -0.154193 40.2471 0.0231408 41.4535C0.275301 42.3731 0.881451 43.1554 1.70897 43.6293C2.0941 43.8953 2.50028 44.1294 2.92347 44.3293C3.42631 44.5848 4.26631 45.0141 4.32347 45.3221C4.39934 45.717 4.35462 46.1255 4.19514 46.4946C4.02247 46.8586 3.84514 47.1748 3.68881 47.4478C3.23381 48.254 2.54781 49.472 3.62464 50.3808C3.87547 50.6036 4.30597 50.942 4.70031 51.243C4.40834 51.756 4.27745 52.345 4.32464 52.9335C4.38733 53.3892 4.63506 53.799 5.00947 54.0663C5.27081 54.2518 5.54731 54.4163 5.82614 54.5703C6.50981 54.9623 6.77697 55.1443 6.86914 55.5036C6.93147 55.9789 6.88846 56.462 6.74314 56.9188C6.67431 57.235 6.60781 57.5406 6.56697 57.8463Z" fill="white"/>
<path d="M13.0281 20.7596L13.1448 20.2545C13.3493 19.2793 13.6099 18.3168 13.9253 17.3716C14.6286 15.4242 15.7174 13.6386 17.1266 12.1216C18.6389 10.6957 20.4901 9.67937 22.505 9.16881C22.9037 9.0471 23.2071 8.72194 23.3011 8.31582C23.395 7.9097 23.2651 7.48432 22.9604 7.19991C22.6556 6.91549 22.2223 6.81526 21.8236 6.93697C19.4202 7.56225 17.2183 8.79619 15.4303 10.5198C13.8051 12.2664 12.5492 14.3231 11.7378 16.5666C11.3881 17.6018 11.0998 18.6568 10.8745 19.726L10.7578 20.2311C10.65 20.6417 10.7737 21.0785 11.0808 21.3716C11.388 21.6646 11.8301 21.7677 12.2352 21.6407C12.6403 21.5138 12.9444 21.1768 13.0293 20.7608L13.0281 20.7596Z" fill="white"/>
<path d="M10.5 25.6667C11.1443 25.6667 11.6666 25.1444 11.6666 24.5C11.6666 23.8557 11.1443 23.3334 10.5 23.3334C9.85565 23.3334 9.33331 23.8557 9.33331 24.5C9.33331 25.1444 9.85565 25.6667 10.5 25.6667Z" fill="white"/>
<path d="M59.465 35.8564L66.2048 29.0548L66.4172 28.8331L66.4265 28.8214C66.451 28.7958 66.4767 28.7701 66.5012 28.7433C71.2375 23.648 71.102 15.721 66.1943 10.7906C61.3387 5.83157 53.4 5.69332 48.3747 10.4803C48.2673 10.5814 48.1612 10.6852 48.0562 10.7918C48.048 10.7999 48.0457 10.8116 48.0375 10.8198L35.8412 23.1199C34.4489 24.5288 34.4489 26.7954 35.8412 28.2043C36.5044 28.8746 37.4077 29.2525 38.3507 29.2543L50.036 41.0551C50.5259 41.5543 50.5259 42.3538 50.036 42.8529C49.8053 43.0875 49.49 43.2196 49.161 43.2196C48.832 43.2196 48.5167 43.0875 48.286 42.8529L34.0807 28.5193C33.6271 28.0615 32.8882 28.0581 32.4304 28.5117C31.9726 28.9653 31.9692 29.7042 32.4228 30.1619L46.6293 44.4991C47.12 44.9984 47.12 45.7988 46.6293 46.2981C46.1424 46.7723 45.3663 46.7723 44.8793 46.2981L26.404 27.6501C26.32 27.5649 26.2372 27.4786 26.1567 27.3911C22.2689 23.2128 22.3802 16.7083 26.4087 12.6654C28.3652 10.6829 31.0345 9.56688 33.8199 9.56688C36.6053 9.56688 39.2746 10.6829 41.2312 12.6654C41.5227 12.9698 41.9557 13.0933 42.3639 12.9885C42.7721 12.8837 43.092 12.5669 43.2009 12.1598C43.3097 11.7526 43.1905 11.3184 42.889 11.0239C40.4943 8.59894 37.2281 7.23401 33.8199 7.23401C30.4118 7.23401 27.1456 8.59894 24.7508 11.0239C19.8424 15.9545 19.7069 23.8824 24.444 28.9778C24.4522 28.9871 24.4545 28.9988 24.4638 29.0081L24.7392 29.2858L24.7462 29.2928L43.2145 47.9314C43.8837 48.6093 44.7966 48.9908 45.7491 48.9908C46.7016 48.9908 47.6144 48.6093 48.2837 47.9314C48.9142 47.2891 49.2806 46.4335 49.3103 45.5339C50.2081 45.5016 51.0599 45.1287 51.6927 44.4909C52.3233 43.8486 52.6901 42.9931 52.7205 42.0934C53.6189 42.0593 54.4705 41.6838 55.1017 41.0434C55.7322 40.4015 56.099 39.5464 56.1295 38.6471C57.0281 38.6122 57.8798 38.2369 58.5118 37.5971C58.9873 37.1183 59.3177 36.5149 59.465 35.8564ZM37.4978 24.7638L49.9812 12.1743C54.0874 8.26465 60.5731 8.38005 64.5377 12.4333C68.5661 16.4762 68.6774 22.9806 64.7897 27.1589L64.7243 27.2266L58.9458 33.0599C58.8214 32.8718 58.6792 32.696 58.5212 32.5349L47.5697 21.4831L48.601 20.4424C50.0801 21.8606 51.997 22.7343 54.0377 22.9204C56.4062 22.963 58.6728 21.958 60.2315 20.1741C60.5247 19.8767 60.637 19.4455 60.5261 19.0428C60.4151 18.6402 60.0978 18.3273 59.6937 18.2221C59.2895 18.1169 58.8599 18.2352 58.5667 18.5326C57.4627 19.8205 55.8575 20.5704 54.1613 20.5906C52.3485 20.3452 50.6903 19.4386 49.5052 18.0449C49.2962 17.7873 48.9875 17.6308 48.6562 17.6145C48.3249 17.5983 48.0023 17.7238 47.7692 17.9598L45.1068 20.6501L41.7083 24.0801L39.2653 26.5453C39.0345 26.7806 38.7187 26.913 38.3892 26.9128C38.0599 26.9132 37.7444 26.7807 37.5142 26.5453C37.0303 26.0526 37.0231 25.2653 37.4978 24.7638ZM53.4485 39.4159C52.9626 39.8926 52.1844 39.8926 51.6985 39.4159L40.7318 28.3513C40.789 28.3011 40.8485 28.2614 40.9068 28.2066L42.518 26.5814L53.4333 37.6029L53.4438 37.6181C53.935 38.116 53.9371 38.9155 53.4485 39.4159ZM55.1133 35.9789L44.1583 24.9224L45.9235 23.1409L56.8575 34.1753C57.3474 34.6744 57.3474 35.474 56.8575 35.9731C56.3734 36.4464 55.6006 36.449 55.1133 35.9789Z" fill="white"/>
</svg>
