<svg width="81" height="66" viewBox="0 0 81 66" fill="none" xmlns="http://www.w3.org/2000/svg">
<g clip-path="url(#clip0_101_137)">
<path d="M1.24585 59.2577H3.09919C4.58425 59.2577 5.58772 60.2494 5.58772 61.635C5.58772 63.0206 4.58425 64.0124 3.09919 64.0124H1.24585V59.2577ZM3.07252 63.6998C4.39705 63.6998 5.24665 62.8438 5.24665 61.6348C5.24665 60.4262 4.39705 59.5702 3.07252 59.5702H1.58718V63.6996H3.07252V63.6998Z" fill="#009DC4"/>
<path d="M7.18677 59.3328C7.18677 59.1834 7.3073 59.0544 7.46117 59.0544C7.61504 59.0544 7.73557 59.1762 7.73557 59.3256C7.73557 59.4818 7.61504 59.6045 7.46117 59.6045C7.3073 59.6045 7.18677 59.4821 7.18677 59.3328ZM7.29397 60.4669H7.62837V64.0123H7.29397V60.4669Z" fill="#009DC4"/>
<path d="M12.472 60.467L10.8933 64.0124H10.552L8.97974 60.467H9.3344L10.7259 63.6388L12.1309 60.467H12.472Z" fill="#009DC4"/>
<path d="M16.6801 62.3212H13.6764C13.7097 63.1636 14.3188 63.7342 15.1548 63.7342C15.5964 63.7342 16.0044 63.5708 16.2721 63.238L16.466 63.4622C16.1583 63.8425 15.6767 64.0393 15.1479 64.0393C14.0908 64.0393 13.3481 63.2924 13.3481 62.2396C13.3481 61.1868 14.0641 60.4398 15.0209 60.4398C15.9775 60.4398 16.6868 61.1732 16.6868 62.226C16.6868 62.2532 16.6801 62.287 16.6801 62.3212ZM13.6828 62.0564H16.3591C16.3121 61.2889 15.7636 60.7388 15.0209 60.7388C14.2785 60.7388 13.7367 61.282 13.6828 62.0564Z" fill="#009DC4"/>
<path d="M20.0053 60.4402V60.773C19.9786 60.773 19.952 60.7661 19.9248 60.7661C19.1488 60.7661 18.6872 61.2893 18.6872 62.1655V64.0127H18.3528V60.4674H18.6739V61.2418C18.888 60.7253 19.3496 60.4402 20.0053 60.4402Z" fill="#009DC4"/>
<path d="M21.0757 63.5847L21.2296 63.313C21.497 63.5439 21.972 63.7407 22.4874 63.7407C23.2232 63.7407 23.5176 63.4759 23.5176 63.0751C23.5176 62.0429 21.2029 62.8034 21.2029 61.4114C21.2029 60.8749 21.6442 60.4402 22.5274 60.4402C22.969 60.4402 23.4506 60.5762 23.725 60.7863L23.5712 61.0581C23.2768 60.8407 22.8954 60.7389 22.5208 60.7389C21.8386 60.7389 21.5376 61.0242 21.5376 61.4045C21.5376 62.4706 23.8522 61.7167 23.8522 63.0682C23.8522 63.6458 23.364 64.0394 22.4741 64.0394C21.8986 64.0394 21.3501 63.8426 21.0757 63.5847Z" fill="#009DC4"/>
<path d="M25.3103 59.3328C25.3103 59.1834 25.4308 59.0544 25.5847 59.0544C25.7386 59.0544 25.8591 59.1762 25.8591 59.3256C25.8591 59.4818 25.7386 59.6045 25.5847 59.6045C25.4308 59.6045 25.3103 59.4821 25.3103 59.3328ZM25.4175 60.4669H25.7519V64.0123H25.4175V60.4669Z" fill="#009DC4"/>
<path d="M29.5253 63.7879C29.3514 63.9577 29.0704 64.0391 28.8096 64.0391C28.1941 64.0391 27.8594 63.6724 27.8594 63.0748V60.759H27.217V60.4668H27.8594V59.6924H28.1938V60.4668H29.3042V60.759H28.1938V63.0409C28.1938 63.4961 28.4144 63.7473 28.8426 63.7473C29.0501 63.7473 29.244 63.6793 29.3848 63.5505L29.5253 63.7879Z" fill="#009DC4"/>
<path d="M33.8205 60.467L32.0277 64.4945C31.7466 65.1465 31.3986 65.3574 30.937 65.3574C30.6229 65.3574 30.3282 65.2486 30.1277 65.0382L30.2949 64.7798C30.4757 64.9702 30.6831 65.0582 30.9439 65.0582C31.2653 65.0582 31.4994 64.9089 31.7133 64.4268L31.9008 63.999L30.3285 60.467H30.6831L32.0813 63.6388L33.4794 60.467H33.8205Z" fill="#009DC4"/>
<path d="M37.4197 59.3328C37.4197 59.1834 37.5402 59.0544 37.6941 59.0544C37.8479 59.0544 37.9685 59.1762 37.9685 59.3256C37.9685 59.4818 37.8479 59.6045 37.6941 59.6045C37.5402 59.6045 37.4197 59.4821 37.4197 59.3328ZM37.5269 60.4669H37.8613V64.0123H37.5269V60.4669Z" fill="#009DC4"/>
<path d="M43.0264 61.9409V64.0123H42.6917V61.9678C42.6917 61.1665 42.2706 60.7452 41.561 60.7452C40.7381 60.7452 40.2365 61.2817 40.2365 62.1241V64.0121H39.9021V60.4668H40.2232V61.2342C40.4576 60.7385 40.9458 60.4398 41.6082 60.4398C42.4578 60.4401 43.0264 60.9492 43.0264 61.9409Z" fill="#009DC4"/>
<path d="M51.2279 59.2577L49.1405 64.0121H48.7991L46.7117 59.2577H47.0863L48.9799 63.5641L50.873 59.2577H51.2279Z" fill="#009DC4"/>
<path d="M55.189 62.3212H52.1847C52.2183 63.1636 52.8271 63.7342 53.6636 63.7342C54.1047 63.7342 54.513 63.5708 54.7807 63.238L54.9746 63.4622C54.6668 63.8425 54.1852 64.0393 53.6564 64.0393C52.5996 64.0393 51.8567 63.2924 51.8567 62.2396C51.8567 61.1868 52.5727 60.4398 53.5295 60.4398C54.4863 60.4398 55.1954 61.1732 55.1954 62.226C55.1956 62.2532 55.189 62.287 55.189 62.3212ZM52.1916 62.0564H54.8676C54.8207 61.2889 54.2722 60.7388 53.5295 60.7388C52.7868 60.7388 52.2452 61.282 52.1916 62.0564Z" fill="#009DC4"/>
<path d="M59.9856 61.9409V64.0123H59.6509V61.9678C59.6509 61.1665 59.2299 60.7452 58.5203 60.7452C57.6973 60.7452 57.1957 61.2817 57.1957 62.1241V64.0121H56.8611V60.4668H57.1824V61.2342C57.4168 60.7385 57.9048 60.4398 58.5675 60.4398C59.4171 60.4401 59.9856 60.9492 59.9856 61.9409Z" fill="#009DC4"/>
<path d="M63.7253 63.7879C63.5509 63.9577 63.2701 64.0391 63.0093 64.0391C62.3938 64.0391 62.0589 63.6724 62.0589 63.0748V60.759H61.4167V60.4668H62.0589V59.6924H62.3936V60.4668H63.5042V60.759H62.3936V63.0409C62.3936 63.4961 62.6144 63.7473 63.0426 63.7473C63.2501 63.7473 63.444 63.6793 63.5842 63.5505L63.7253 63.7879Z" fill="#009DC4"/>
<path d="M68.3413 60.467V64.0124H68.0199V63.2513C67.7925 63.7476 67.3175 64.0393 66.7018 64.0393C65.8119 64.0393 65.2434 63.5302 65.2434 62.5385V60.467H65.5781V62.5116C65.5781 63.3129 65.9991 63.7342 66.7287 63.7342C67.5181 63.7342 68.0063 63.1977 68.0063 62.3553V60.4673H68.3413V60.467Z" fill="#009DC4"/>
<path d="M72.0412 60.4402V60.773C72.0143 60.773 71.9879 60.7661 71.9607 60.7661C71.1847 60.7661 70.7231 61.2893 70.7231 62.1655V64.0127H70.3884V60.4674H70.7098V61.2418C70.9239 60.7253 71.3855 60.4402 72.0412 60.4402Z" fill="#009DC4"/>
<path d="M76.5105 62.3212H73.5062C73.5398 63.1636 74.1486 63.7342 74.9852 63.7342C75.4262 63.7342 75.8345 63.5708 76.1022 63.238L76.2961 63.4622C75.9884 63.8425 75.5068 64.0393 74.978 64.0393C73.9212 64.0393 73.1782 63.2924 73.1782 62.2396C73.1782 61.1868 73.8942 60.4398 74.851 60.4398C75.8078 60.4398 76.5169 61.1732 76.5169 62.226C76.5169 62.2532 76.5105 62.287 76.5105 62.3212ZM73.5132 62.0564H76.1892C76.1422 61.2889 75.5937 60.7388 74.851 60.7388C74.1084 60.7388 73.5668 61.282 73.5132 62.0564Z" fill="#009DC4"/>
<path d="M77.6675 63.5847L77.8213 63.313C78.0891 63.5439 78.5643 63.7407 79.0795 63.7407C79.8155 63.7407 80.1096 63.4759 80.1096 63.0751C80.1096 62.0429 77.7949 62.8034 77.7949 61.4114C77.7949 60.8749 78.2365 60.4402 79.1195 60.4402C79.5611 60.4402 80.0427 60.5762 80.3171 60.7863L80.1632 61.0581C79.8688 60.8407 79.4877 60.7389 79.1131 60.7389C78.4307 60.7389 78.1293 61.0242 78.1293 61.4045C78.1293 62.4706 80.444 61.7167 80.444 63.0682C80.444 63.6458 79.9557 64.0394 79.0661 64.0394C78.4904 64.0394 77.9419 63.8426 77.6675 63.5847Z" fill="#009DC4"/>
<path d="M8.05954 50.0942L5.14061 56.8377H3.59928L0.689941 50.0942H2.37581L4.42781 54.9113L6.50888 50.0942H8.05954Z" fill="white"/>
<path d="M14.747 55.5852V56.8377H9.52539V50.0942H14.6214V51.3468H11.0763V52.8108H14.2073V54.0249H11.0763V55.5852H14.747Z" fill="white"/>
<path d="M23.0815 50.0942V56.8377H21.8002L18.4381 52.7433V56.8377H16.8967V50.0942H18.1874L21.5399 54.1886V50.0942H23.0815Z" fill="white"/>
<path d="M26.9845 51.3657H24.8267V50.0942H30.7032V51.3657H28.5453V56.8377H26.9848V51.3657H26.9845Z" fill="white"/>
<path d="M32.2749 53.8701V50.0939H33.8354V53.8125C33.8354 55.0936 34.3944 55.6237 35.3384 55.6237C36.2922 55.6237 36.8413 55.0936 36.8413 53.8125V50.0939H38.3826V53.8701C38.3826 55.8546 37.2461 56.9528 35.3288 56.9528C33.4114 56.9528 32.2749 55.8546 32.2749 53.8701Z" fill="white"/>
<path d="M45.1275 56.8377L43.8273 54.959H43.7502H42.3918V56.8377H40.8315V50.0942H43.7505C45.5518 50.0942 46.679 51.0286 46.679 52.5414C46.679 53.5526 46.1683 54.2948 45.2915 54.6702L46.8038 56.8377H45.1275ZM43.6638 51.3657H42.3918V53.7164H43.6638C44.6169 53.7164 45.0985 53.2732 45.0985 52.5412C45.0985 51.7993 44.6169 51.3657 43.6638 51.3657Z" fill="white"/>
<path d="M53.2601 55.3925H50.1294L49.5318 56.8373H47.9326L50.9385 50.0939H52.4798L55.495 56.8373H53.8572L53.2601 55.3925ZM52.7689 54.2075L51.6993 51.6259L50.63 54.2075H52.7689Z" fill="white"/>
<path d="M56.5754 56.1732L57.105 54.9974C57.6736 55.4116 58.5216 55.7009 59.3304 55.7009C60.2552 55.7009 60.6309 55.3926 60.6309 54.9785C60.6309 53.7164 56.7104 54.5833 56.7104 52.0785C56.7104 50.9324 57.6352 49.9785 59.5522 49.9785C60.4003 49.9785 61.2669 50.1809 61.8931 50.5756L61.4115 51.7606C60.7853 51.4038 60.14 51.2305 59.5429 51.2305C58.6176 51.2305 58.2613 51.5772 58.2613 52.0014C58.2613 53.2441 62.1824 52.3868 62.1824 54.8622C62.1824 55.9894 61.2475 56.9526 59.321 56.9526C58.2517 56.9532 57.1725 56.6353 56.5754 56.1732Z" fill="white"/>
<path d="M65.4591 51.3657H63.3013V50.0942H69.1781V51.3657H67.0202V56.8377H65.4594V51.3657H65.4591Z" fill="white"/>
<path d="M70.9224 50.0942H72.4832V56.8377H70.9224V50.0942Z" fill="white"/>
<path d="M74.5649 53.4662C74.5649 51.4332 76.1257 49.9788 78.2257 49.9788C79.3913 49.9788 80.3641 50.4025 81.0001 51.1734L79.9983 52.0982C79.5452 51.5777 78.9769 51.3084 78.3025 51.3084C77.0404 51.3084 76.1447 52.1942 76.1447 53.4662C76.1447 54.7377 77.0404 55.6241 78.3025 55.6241C78.9769 55.6241 79.5452 55.3542 79.9983 54.8241L81.0001 55.7489C80.3641 56.5294 79.3913 56.9529 78.2161 56.9529C76.1257 56.9531 74.5649 55.4987 74.5649 53.4662Z" fill="white"/>
<path d="M42.6987 39.9714L59.6889 1.00262H60.6907L43.1889 41.1226L42.6987 39.9714Z" fill="#009DC4"/>
<path d="M41.1638 38.948L57.6902 1.00239L58.7294 0.994385L41.6542 40.0989L41.1638 38.948Z" fill="#009DC4"/>
<path d="M39.6289 37.9245L55.7238 0.994385L56.739 1.00239L40.1193 39.0757L39.6289 37.9245Z" fill="#009DC4"/>
<path d="M43.8711 42.4213L61.5434 1.00262H62.5029L44.3327 43.7232L43.8711 42.4213Z" fill="#009DC4"/>
<path d="M45.0037 44.7386L63.5263 1.00262H64.5178L45.5074 45.9136L45.0037 44.7386Z" fill="#009DC4"/>
<path d="M17.0129 1.00275L27.1049 1.01368L45.5073 45.9137L35.8345 45.919L17.0129 1.00275Z" fill="white"/>
<path d="M41.2503 15.6732L39.3567 19.6831L41.3386 24.798L43.2762 19.7242L41.2503 15.6732Z" fill="#009DC4"/>
<path d="M37.0225 19.7242L38.8723 20.0514L40.9419 25.4119L37.0225 19.7242Z" fill="white"/>
<path d="M45.6983 19.7242L43.8487 20.0514L41.7788 25.4119L45.6983 19.7242Z" fill="white"/>
<path d="M37.595 16.8188L36.8025 18.9466L38.5638 19.2332L37.595 16.8188Z" fill="#009DC4"/>
<path d="M45.1697 16.8188L45.9625 18.9466L44.2009 19.2332L45.1697 16.8188Z" fill="#009DC4"/>
<path d="M38.0354 16.2872L40.8978 15.1413L39.0922 18.9466L38.0354 16.2872Z" fill="white"/>
<path d="M44.5973 16.2872L41.7349 15.1413L43.5405 18.9466L44.5973 16.2872Z" fill="white"/>
</g>
<defs>
<clipPath id="clip0_101_137">
<rect width="81.0001" height="66" fill="white"/>
</clipPath>
</defs>
</svg>
